<svg id="Capa_1" data-name="Capa 1" xmlns="http://www.w3.org/2000/svg" viewBox="0 0 1920 1080"><defs><style>.cls-1{fill:#6577f9;}.cls-2{fill:#394fe4;}</style></defs><title>covid</title><path class="cls-1" d="M266.36,234.45c-8.58,3.21-17,6.81-25.48,10.32-1.4.58-1.52,1.21-1.15,2.57a57.64,57.64,0,0,1,2.2,17.47c-.53,15.45-5.92,28.95-16.51,40.27a2.81,2.81,0,0,0-.66,3.67C229.32,318.93,234,329.05,239,339a5.22,5.22,0,0,0,.8,1,9,9,0,0,1,.74.77c1.88,2.73,1.5,3.72-1.74,4.57-1.1.29-2.2.58-3.31.84-2.66.62-3.09.38-3.88-2.14a4.4,4.4,0,0,0-.32-1,2.36,2.36,0,0,0,.2-1.83,220.75,220.75,0,0,0-10.42-29.68c-.57-1.27-1-1.37-2.08-.46A60.16,60.16,0,0,1,186,324.28a61.28,61.28,0,0,1-32.58-6.21c-1-.46-1.64-.77-2.59.18-5.19,5.16-10.28,10.41-15.07,15.95a4.45,4.45,0,0,0-.53,1.12,8.7,8.7,0,0,1-3.81-3.85c1.37-.52,1.88-1.86,2.66-2.91,3.41-4.54,6.72-9.15,10.15-13.68.92-1.22.9-1.89-.39-2.87a60.12,60.12,0,0,1-20.59-28.12,61.17,61.17,0,0,1-3.06-27.67,64.58,64.58,0,0,1,1.91-9.57c.26-1,0-1.38-.91-1.66-9.43-2.86-18.9-5.55-28.67-7.06a17.67,17.67,0,0,0-4.64-.4,10.45,10.45,0,0,1,1.71-6c8.74,1.78,17.54,3.27,26.34,4.72q3.57.59,7.12,1.21c1.44.25,2.46.06,3.25-1.51a59.74,59.74,0,0,1,19.27-22.35c1-.75,1.35-1.39.77-2.63-3-6.42-5.81-13-9.39-19.11,1.34-1.6,3.21-2.32,5.08-3,1.45,3.8,3.85,7.09,5.8,10.62,1.47,2.67,3.1,5.26,4.6,7.91.62,1.11,1.19,1.37,2.48.77a56.8,56.8,0,0,1,26.58-5.62c1.59.07,2.19-.52,2.29-2,.5-7.35,1.11-14.71.24-22.09-.09-.77-.1-1.56-.15-2.34,2.16-.64,4.37-.3,6.56-.39-.17,8.38-.63,16.75-.59,25.14,0,1.74.6,2.25,2.24,2.55a59.49,59.49,0,0,1,27.65,12.91,60.63,60.63,0,0,1,17.07,22.56c.37.83.71,1.05,1.57.79,8-2.39,16-4.86,23.45-8.88.76-.4,1.55-.79,1.57-1.82A11.1,11.1,0,0,1,266.36,234.45Z"/><path class="cls-1" d="M330.78,162c-.16,3.19,2.53,4.14,4.53,5.48a111.74,111.74,0,0,0,12.1,7.11c1.21.61,1.61.53,1.92-.89a36.46,36.46,0,0,1,9.4-17.61,36,36,0,0,1,18-10.32c.89-.21,1.38-.52,1.46-1.48.39-4.59,1.08-9.16.74-13.78a2.59,2.59,0,0,1,3.12.38c-.26,3.84.53,7.64.45,11.48,0,1.75.63,2.23,2.64,2.28,14.72.39,25.94,6.86,33.13,19.89,1.6,2.89,1.5,2.89,4.55,1.64a126.17,126.17,0,0,0,16-8,2.19,2.19,0,0,1,1.27,3c-3.85,2.78-8.21,4.68-12.21,7.22a1.63,1.63,0,0,0-.19.09c-1.94,1.16-4.44,1.92-5.68,3.6s.4,4.24.51,6.43a40.18,40.18,0,0,1-1.11,12.41c-.2.73-.58,1.43.5,1.94A98.85,98.85,0,0,0,433.75,198c-.2,2.13.08,4.34-1,6.34.11-3.28-2.34-4-4.75-4.74s-4.69-1.63-7-2.52c-1.11-.43-1.73-.36-2.29.87a32.74,32.74,0,0,1-9.44,12.15c-1.14.91-1.23,1.64-.33,2.77,2.23,2.75,4.33,5.61,6.56,8.36a6.27,6.27,0,0,0,3.72,2.61,18.89,18.89,0,0,0-4.27,2.67c-3-3.93-6.07-7.85-9.08-11.79-.79-1-1.51-1.15-2.69-.51-10.91,5.83-22,6.11-33.31,1.08-.89-.4-1.61-.84-2.33.28a79.75,79.75,0,0,0-6.85,12,3.23,3.23,0,0,0-.37,2.26c-2.3-.54-4.77-.17-7-1.27.05,0,.12-.13.16-.12,3.44.56,4.53-2,5.77-4.35,1.7-3.27,3.38-6.56,5.16-9.79.67-1.22.36-1.79-.7-2.58-9.75-7.23-14.62-17.08-15.39-29.08a1.53,1.53,0,0,1,0-.64c1.22-3.51-1.11-4.64-3.71-5.79-5.51-2.43-10.82-5.32-16.49-7.41-2.55-.3-2.63-.79-1.45-3C327.67,163.88,329.6,163.39,330.78,162Z"/><path class="cls-1" d="M315,318.22c2.39,1.77,4.83,3.48,7.15,5.34,1,.81,1.63.68,2.5-.19a27,27,0,0,1,9.6-6.51c1-.36,1.28-.8.91-1.91a51,51,0,0,0-4.44-10.33,3.71,3.71,0,0,1,3-.95c1.37,3.42,2.78,6.83,4.09,10.28.4,1.07.9,1.41,2,1.2,9.37-1.71,17.71.43,24.88,6.82.44.39.95,1.11,1.63.52,3.18-2.79,6.77-5.18,8.91-9,1.07.14,1.9.55,2.06,1.75-2.73,2.79-5.41,5.63-8.23,8.32-1.13,1.08-1.08,1.78-.23,3,5.77,8.25,7,17.19,3.72,26.69a1.66,1.66,0,0,0,.49,2c3.86,3.77,7.83,7.41,12,10.83.71.28,1.7.45,1.4,1.48a3.85,3.85,0,0,1-2.92,2.49c-1,.28-1.23-.65-1.46-1.39a116.93,116.93,0,0,0-9.64-11.09c-.86-.88-1.27-.94-2,.23-4.66,7.61-11.3,12.45-20.16,14a17.45,17.45,0,0,1-5.9.3,1.94,1.94,0,0,0-2.42,1.47c-1.14,3.06-2.36,6.09-3.54,9.13-1.17.37-2.28.49-3-.83.83,0,1.19-.39,1.38-1.25.58-2.55,1.26-5.08,1.92-7.61.26-1,0-1.54-1.06-1.87-11.56-3.6-18.42-11.41-20.7-23.26-.24-1.2-.57-1.73-2-1.57a122.86,122.86,0,0,0-12.36,1.87,3,3,0,0,0-2.53,1.65,3.09,3.09,0,0,1-.1-3.8c5-1.14,10.08-2.3,15.13-3.41.94-.2,1.53-.48,1.6-1.59a27.49,27.49,0,0,1,4.12-12.61,1.21,1.21,0,0,0-.19-1.81,48.24,48.24,0,0,0-7.41-6.36C313.41,319.22,313.77,318.33,315,318.22Z"/><path class="cls-2" d="M89.57,231.54a23.47,23.47,0,0,1-1.71,6c-3.22,5.8-8.16,8.95-14.77,8.79-6.43-.15-11.21-3.35-14.1-9.14a16.05,16.05,0,1,1,30.55-7.34Z"/><path class="cls-2" d="M266.36,234.45a24.43,24.43,0,0,1-3-5.47c-2.93-10.44,3.23-19.87,13.76-21.07a16.06,16.06,0,0,1,17.34,13.3c1.32,8.76-4.45,17-12.88,18.46C275.54,240.72,270.6,238.64,266.36,234.45Z"/><path class="cls-2" d="M131.4,331.47a19.3,19.3,0,0,1,3.81,3.85,16.1,16.1,0,1,1-4.53-4.32C130.93,331.15,131.16,331.32,131.4,331.47Z"/><path class="cls-2" d="M142,188.83a18.58,18.58,0,0,1-5.08,3c-8.8,2.12-14.62-3.33-16.18-8.82a12.86,12.86,0,1,1,22.11,4.82C142.58,188.2,142.29,188.51,142,188.83Z"/><path class="cls-2" d="M382.07,130.86l-3.12-.38c-4.81-1.58-7.51-5.45-7.16-10.28a9.75,9.75,0,0,1,18.72-2.79C393,123.55,389.08,129.85,382.07,130.86Z"/><path class="cls-2" d="M440.08,161.08a10.08,10.08,0,0,0-1.27-3c0-1.7-.29-3.4.17-5.08a9.74,9.74,0,0,1,18.84,0,9.72,9.72,0,0,1-4.43,10.83,9.55,9.55,0,0,1-11.77-1.38Z"/><path class="cls-2" d="M353.36,228.49c2.35.21,4.87-.41,7,1.27,4.27,2.92,5.75,7.58,3.84,12.09a9.71,9.71,0,0,1-18.66-3.59C345.33,233.58,348.45,229.7,353.36,228.49Z"/><path class="cls-2" d="M231.33,343c.8,0,.92.6,1,1.13.22,2.07,1.36,2,2.95,1.49a33.07,33.07,0,0,1,4.49-1.11c1.72-.32,1.84-1.09.95-2.42a3.8,3.8,0,0,1-.86-2.12A9.48,9.48,0,0,1,248,350.43a9.61,9.61,0,0,1-19.12.25A9.36,9.36,0,0,1,231.33,343Z"/><path class="cls-2" d="M432.75,204.29c.14-2.15-.32-4.38,1-6.34,1.91-2.35,4.3-3.74,7.4-3.33a7.78,7.78,0,0,1,6.93,7.66,8,8,0,0,1-6.59,7.79C437.73,210.76,434.15,208.39,432.75,204.29Z"/><path class="cls-2" d="M377.32,315.24l-2.06-1.75c-2.39-3.33-2.54-6.87-.41-9.65a7.58,7.58,0,1,1,4.32,11.88C378.55,315.58,377.94,315.4,377.32,315.24Z"/><path class="cls-2" d="M300,346.05c0,1.27.06,2.53.1,3.8-1.16,4.42-4.68,6.81-8.85,6a7.56,7.56,0,0,1,2-15C296.59,341.15,298.63,343.18,300,346.05Z"/><path class="cls-2" d="M335.46,381.89l3,.83c2.56,2.07,4.26,4.54,3.57,8a7.47,7.47,0,0,1-8.13,6.19,7.57,7.57,0,0,1,.31-15.1C334.61,381.83,335,381.88,335.46,381.89Z"/><path class="cls-2" d="M190.41,175.73c-2.13,1.18-4.34.75-6.56.39-.61-.67-1.27-1.31-1.82-2a6.41,6.41,0,0,1,9.71-8.35,6.47,6.47,0,0,1-.06,8.86C191.29,175,190.83,175.36,190.41,175.73Z"/><path class="cls-2" d="M315,318.22l-1.78,2a6.09,6.09,0,1,1-3.8-10.88,6,6,0,0,1,6,6.12A19.34,19.34,0,0,1,315,318.22Z"/><path class="cls-2" d="M330.78,162c-.36.62,1,2.81-1.45,1.55-.32-.16-3.23,3.69-3.07,4,.36.8,1.39.56,1.9,1.16a5.41,5.41,0,0,1-7.37-1.14,5.82,5.82,0,1,1,10-5.62Z"/><path class="cls-2" d="M382.09,368.68c1.41,2.19,2.38.3,3.43-.41,1.5-1,.13-1.53-.45-2.17,2.72-.31,4.41.48,5.29,2.46a4.6,4.6,0,0,1-1.24,5.38,4.49,4.49,0,0,1-5.51.17C381.9,372.91,381.37,371,382.09,368.68Z"/><path class="cls-2" d="M415,226.46a4,4,0,0,1,4.27-2.67c2.55.74,3.74,2.4,3.31,4.61a4,4,0,0,1-4.25,3.09C416,231.21,414.77,229.4,415,226.46Z"/><path class="cls-2" d="M333.71,303.67a4.81,4.81,0,0,1-3,.95,3.07,3.07,0,0,1-2-4.62,2.87,2.87,0,0,1,3.49-1.25,2.77,2.77,0,0,1,2,3.1A10.68,10.68,0,0,1,333.71,303.67Z"/><path class="cls-2" d="M157.91,299.48c-8,.43-16.19-6.33-16.16-16a15.83,15.83,0,0,1,16-16c8.95,0,16,6.47,16.16,16.07A15.77,15.77,0,0,1,157.91,299.48Z"/><path class="cls-2" d="M141.19,244a6.21,6.21,0,0,1,6.35-6.51A6.4,6.4,0,0,1,154,244a6.71,6.71,0,0,1-6.26,6.33A6.22,6.22,0,0,1,141.19,244Z"/><path class="cls-2" d="M170.74,247.3c2.94,0,4.67,1.64,4.69,4.54a4.64,4.64,0,0,1-4.51,4.9A4.86,4.86,0,0,1,166,252,4.62,4.62,0,0,1,170.74,247.3Z"/><path class="cls-2" d="M388.47,153.8c5-.48,9.75,4.55,9.75,9.5a9.79,9.79,0,0,1-19.57.16C378.71,158.22,383.23,153.34,388.47,153.8Z"/><path class="cls-2" d="M412.37,177.82a3.51,3.51,0,0,1-3.83,3.83,4,4,0,0,1-3.87-3.72,4.27,4.27,0,0,1,4-4A3.94,3.94,0,0,1,412.37,177.82Z"/><path class="cls-2" d="M397.43,183.56c-.07,1.29-.91,2.3-2.71,2.36a2.59,2.59,0,0,1-2.91-2.62,2.78,2.78,0,0,1,2.84-3C396.29,180.32,397.42,181.47,397.43,183.56Z"/><path class="cls-2" d="M346.61,356.19a7.5,7.5,0,1,1-15,.27,7.5,7.5,0,1,1,15-.27Z"/><path class="cls-2" d="M330.37,341a2.81,2.81,0,0,1-2.95,2.91,2.93,2.93,0,0,1-3-2.87,3.19,3.19,0,0,1,3.12-3.11A3.1,3.1,0,0,1,330.37,341Z"/><path class="cls-2" d="M341.23,340.22a2.15,2.15,0,0,1-2.29,2.26,2.27,2.27,0,0,1,0-4.53A2.14,2.14,0,0,1,341.23,340.22Z"/><path class="cls-1" d="M1082.36,235.45c-8.58,3.21-17,6.81-25.48,10.32-1.4.58-1.52,1.21-1.15,2.57a57.64,57.64,0,0,1,2.2,17.47c-.53,15.45-5.92,28.95-16.51,40.27a2.81,2.81,0,0,0-.66,3.67c4.56,10.18,9.26,20.3,14.28,30.26a5.22,5.22,0,0,0,.8,1,9,9,0,0,1,.74.77c1.88,2.73,1.5,3.72-1.74,4.57-1.1.29-2.2.58-3.31.84-2.66.62-3.09.38-3.88-2.14a4.4,4.4,0,0,0-.32-1,2.36,2.36,0,0,0,.2-1.83,220.75,220.75,0,0,0-10.42-29.68c-.57-1.27-.95-1.37-2.08-.46a60.16,60.16,0,0,1-33,13.24,61.28,61.28,0,0,1-32.58-6.21c-1-.46-1.64-.77-2.59.18-5.19,5.16-10.28,10.41-15.07,15.95a4.45,4.45,0,0,0-.53,1.12,8.7,8.7,0,0,1-3.81-3.85c1.37-.52,1.88-1.86,2.66-2.91,3.41-4.54,6.72-9.15,10.15-13.68.92-1.22.9-1.89-.39-2.87a60.12,60.12,0,0,1-20.59-28.12,61.17,61.17,0,0,1-3.06-27.67,64.58,64.58,0,0,1,1.91-9.57c.26-1,0-1.38-.91-1.66-9.43-2.86-18.9-5.55-28.67-7.06a17.67,17.67,0,0,0-4.64-.4,10.45,10.45,0,0,1,1.71-6c8.74,1.78,17.54,3.27,26.34,4.72q3.57.59,7.12,1.21c1.44.25,2.46.06,3.25-1.51a59.74,59.74,0,0,1,19.27-22.35c1.05-.75,1.35-1.39.77-2.63-3-6.42-5.81-13-9.39-19.11,1.34-1.6,3.21-2.32,5.08-3,1.45,3.8,3.85,7.09,5.8,10.62,1.47,2.67,3.1,5.26,4.6,7.91.62,1.11,1.19,1.37,2.48.77a56.8,56.8,0,0,1,26.58-5.62c1.59.07,2.19-.52,2.29-2,.5-7.35,1.11-14.71.24-22.09-.09-.77-.1-1.56-.15-2.34,2.16-.64,4.37-.3,6.56-.39-.17,8.38-.63,16.75-.59,25.14,0,1.74.6,2.25,2.24,2.55a59.49,59.49,0,0,1,27.65,12.91,60.63,60.63,0,0,1,17.07,22.56c.37.83.71,1.05,1.57.79,8-2.39,16-4.86,23.45-8.88.76-.4,1.55-.79,1.57-1.82A11.1,11.1,0,0,1,1082.36,235.45Z"/><path class="cls-1" d="M1146.78,163c-.16,3.19,2.53,4.14,4.53,5.48a111.74,111.74,0,0,0,12.1,7.11c1.21.61,1.61.53,1.92-.89a36.46,36.46,0,0,1,9.4-17.61,36,36,0,0,1,18-10.32c.89-.21,1.38-.52,1.46-1.48.39-4.59,1.08-9.16.74-13.78a2.59,2.59,0,0,1,3.12.38c-.26,3.84.53,7.64.45,11.48,0,1.75.63,2.23,2.64,2.28,14.72.39,25.94,6.86,33.13,19.89,1.6,2.89,1.5,2.89,4.55,1.64a126.17,126.17,0,0,0,16-8,2.19,2.19,0,0,1,1.27,3c-3.85,2.78-8.21,4.68-12.21,7.22a1.63,1.63,0,0,0-.19.09c-1.94,1.16-4.44,1.92-5.68,3.6s.4,4.24.51,6.43a40.18,40.18,0,0,1-1.11,12.41c-.2.73-.58,1.43.5,1.94a98.85,98.85,0,0,0,11.85,5.18c-.2,2.13.08,4.34-1,6.34.11-3.28-2.34-4-4.75-4.74s-4.69-1.63-7-2.52c-1.11-.43-1.73-.36-2.29.87a32.74,32.74,0,0,1-9.44,12.15c-1.14.91-1.23,1.64-.33,2.77,2.23,2.75,4.33,5.61,6.56,8.36a6.27,6.27,0,0,0,3.72,2.61,18.89,18.89,0,0,0-4.27,2.67c-3-3.93-6.07-7.85-9.08-11.79-.79-1-1.51-1.15-2.69-.51-10.91,5.83-22,6.11-33.31,1.08-.89-.4-1.61-.84-2.33.28a79.75,79.75,0,0,0-6.85,12,3.23,3.23,0,0,0-.37,2.26c-2.3-.54-4.77-.17-7-1.27.05,0,.12-.13.16-.12,3.44.56,4.53-2,5.77-4.35,1.7-3.27,3.38-6.56,5.16-9.79.67-1.22.36-1.79-.7-2.58-9.75-7.23-14.62-17.08-15.39-29.08a1.53,1.53,0,0,1,0-.64c1.22-3.51-1.11-4.64-3.71-5.79-5.51-2.43-10.82-5.32-16.49-7.41-2.55-.3-2.63-.79-1.45-3C1143.67,164.88,1145.6,164.39,1146.78,163Z"/><path class="cls-1" d="M1131,319.22c2.39,1.77,4.83,3.48,7.15,5.34,1,.81,1.63.68,2.5-.19a27,27,0,0,1,9.6-6.51c1-.36,1.28-.8.91-1.91a51,51,0,0,0-4.44-10.33,3.71,3.71,0,0,1,3-.95c1.37,3.42,2.78,6.83,4.09,10.28.4,1.07.9,1.41,2,1.2,9.37-1.71,17.71.43,24.88,6.82.44.39,1,1.11,1.63.52,3.18-2.79,6.77-5.18,8.91-9,1.07.14,1.9.55,2.06,1.75-2.73,2.79-5.41,5.63-8.23,8.32-1.13,1.08-1.08,1.78-.23,3,5.77,8.25,7,17.19,3.72,26.69a1.66,1.66,0,0,0,.49,2c3.86,3.77,7.83,7.41,12,10.83.71.28,1.7.45,1.4,1.48a3.85,3.85,0,0,1-2.92,2.49c-1,.28-1.23-.65-1.46-1.39a116.93,116.93,0,0,0-9.64-11.09c-.86-.88-1.27-.94-2,.23-4.66,7.61-11.3,12.45-20.16,14a17.45,17.45,0,0,1-5.9.3,1.94,1.94,0,0,0-2.42,1.47c-1.14,3.06-2.36,6.09-3.54,9.13-1.17.37-2.28.49-3-.83.83,0,1.19-.39,1.38-1.25.58-2.55,1.26-5.08,1.92-7.61.26-1,0-1.54-1.06-1.87-11.56-3.6-18.42-11.41-20.7-23.26-.24-1.2-.57-1.73-2-1.57a122.86,122.86,0,0,0-12.36,1.87,3,3,0,0,0-2.53,1.65,3.09,3.09,0,0,1-.1-3.8c5-1.14,10.08-2.3,15.13-3.41.94-.2,1.53-.48,1.6-1.59a27.49,27.49,0,0,1,4.12-12.61,1.21,1.21,0,0,0-.19-1.81,48.24,48.24,0,0,0-7.41-6.36C1129.41,320.22,1129.77,319.33,1131,319.22Z"/><path class="cls-2" d="M905.57,232.54a23.47,23.47,0,0,1-1.71,6c-3.22,5.8-8.16,8.95-14.77,8.79-6.43-.15-11.21-3.35-14.1-9.14a16.05,16.05,0,1,1,30.55-7.34Z"/><path class="cls-2" d="M1082.36,235.45a24.43,24.43,0,0,1-3-5.47c-2.93-10.44,3.23-19.87,13.76-21.07a16.06,16.06,0,0,1,17.34,13.3c1.32,8.76-4.45,17-12.88,18.46C1091.54,241.72,1086.6,239.64,1082.36,235.45Z"/><path class="cls-2" d="M947.4,332.47a19.3,19.3,0,0,1,3.81,3.85,16.1,16.1,0,1,1-4.53-4.32C946.93,332.15,947.16,332.32,947.4,332.47Z"/><path class="cls-2" d="M958,189.83a18.58,18.58,0,0,1-5.08,3c-8.8,2.12-14.62-3.33-16.18-8.82a12.86,12.86,0,1,1,22.11,4.82C958.58,189.2,958.29,189.51,958,189.83Z"/><path class="cls-2" d="M1198.07,131.86l-3.12-.38c-4.81-1.58-7.51-5.45-7.16-10.28a9.75,9.75,0,0,1,18.72-2.79C1209,124.55,1205.08,130.85,1198.07,131.86Z"/><path class="cls-2" d="M1256.08,162.08a10.08,10.08,0,0,0-1.27-3c0-1.7-.29-3.4.17-5.08a9.74,9.74,0,0,1,18.84,0,9.72,9.72,0,0,1-4.43,10.83,9.55,9.55,0,0,1-11.77-1.38Z"/><path class="cls-2" d="M1169.36,229.49c2.35.21,4.87-.41,7,1.27,4.27,2.92,5.75,7.58,3.84,12.09a9.71,9.71,0,0,1-18.66-3.59C1161.33,234.58,1164.45,230.7,1169.36,229.49Z"/><path class="cls-2" d="M1047.33,344c.8,0,.92.6,1,1.13.22,2.07,1.36,2,3,1.49a33.07,33.07,0,0,1,4.49-1.11c1.72-.32,1.84-1.09,1-2.42a3.8,3.8,0,0,1-.86-2.12,9.48,9.48,0,0,1,8.19,10.45,9.61,9.61,0,0,1-19.12.25A9.36,9.36,0,0,1,1047.33,344Z"/><path class="cls-2" d="M1248.75,205.29c.14-2.15-.32-4.38,1-6.34,1.91-2.35,4.3-3.74,7.4-3.33a7.78,7.78,0,0,1,6.93,7.66,8,8,0,0,1-6.59,7.79C1253.73,211.76,1250.15,209.39,1248.75,205.29Z"/><path class="cls-2" d="M1193.32,316.24l-2.06-1.75c-2.39-3.33-2.54-6.87-.41-9.65a7.58,7.58,0,1,1,4.32,11.88C1194.55,316.58,1193.94,316.4,1193.32,316.24Z"/><path class="cls-2" d="M1116,347.05c0,1.27.06,2.53.1,3.8-1.16,4.42-4.68,6.81-8.85,6a7.56,7.56,0,0,1,2-15C1112.59,342.15,1114.63,344.18,1116,347.05Z"/><path class="cls-2" d="M1151.46,382.89l3,.83c2.56,2.07,4.26,4.54,3.57,8a7.47,7.47,0,0,1-8.13,6.19,7.57,7.57,0,0,1,.31-15.1C1150.61,382.83,1151,382.88,1151.46,382.89Z"/><path class="cls-2" d="M1006.41,176.73c-2.13,1.18-4.34.75-6.56.39-.61-.67-1.27-1.31-1.82-2a6.41,6.41,0,0,1,9.71-8.35,6.47,6.47,0,0,1-.06,8.86C1007.29,176,1006.83,176.36,1006.41,176.73Z"/><path class="cls-2" d="M1131,319.22l-1.78,2a6.09,6.09,0,1,1-3.8-10.88,6,6,0,0,1,6,6.12A19.34,19.34,0,0,1,1131,319.22Z"/><path class="cls-2" d="M1146.78,163c-.36.62,1,2.81-1.45,1.55-.32-.16-3.23,3.69-3.07,4,.36.8,1.39.56,1.9,1.16a5.41,5.41,0,0,1-7.37-1.14,5.82,5.82,0,1,1,10-5.62Z"/><path class="cls-2" d="M1198.09,369.68c1.41,2.19,2.38.3,3.43-.41,1.5-1,.13-1.53-.45-2.17,2.72-.31,4.41.48,5.29,2.46a4.6,4.6,0,0,1-1.24,5.38,4.49,4.49,0,0,1-5.51.17C1197.9,373.91,1197.37,372,1198.09,369.68Z"/><path class="cls-2" d="M1231,227.46a4,4,0,0,1,4.27-2.67c2.55.74,3.74,2.4,3.31,4.61a4,4,0,0,1-4.25,3.09C1232,232.21,1230.77,230.4,1231,227.46Z"/><path class="cls-2" d="M1149.71,304.67a4.81,4.81,0,0,1-3,.95,3.07,3.07,0,0,1-2-4.62,2.87,2.87,0,0,1,3.49-1.25,2.77,2.77,0,0,1,2,3.1A10.68,10.68,0,0,1,1149.71,304.67Z"/><path class="cls-2" d="M973.91,300.48c-8,.43-16.19-6.33-16.16-16a15.83,15.83,0,0,1,16-16c9,0,16,6.47,16.16,16.07A15.77,15.77,0,0,1,973.91,300.48Z"/><path class="cls-2" d="M957.19,245a6.21,6.21,0,0,1,6.35-6.51A6.4,6.4,0,0,1,970,245a6.71,6.71,0,0,1-6.26,6.33A6.22,6.22,0,0,1,957.19,245Z"/><path class="cls-2" d="M986.74,248.3c2.94,0,4.67,1.64,4.69,4.54a4.64,4.64,0,0,1-4.51,4.9A4.86,4.86,0,0,1,982,253,4.62,4.62,0,0,1,986.74,248.3Z"/><path class="cls-2" d="M1204.47,154.8c5-.48,9.75,4.55,9.75,9.5a9.79,9.79,0,0,1-19.57.16C1194.71,159.22,1199.23,154.34,1204.47,154.8Z"/><path class="cls-2" d="M1228.37,178.82a3.51,3.51,0,0,1-3.83,3.83,4,4,0,0,1-3.87-3.72,4.27,4.27,0,0,1,4-4A3.94,3.94,0,0,1,1228.37,178.82Z"/><path class="cls-2" d="M1213.43,184.56c-.07,1.29-.91,2.3-2.71,2.36a2.59,2.59,0,0,1-2.91-2.62,2.78,2.78,0,0,1,2.84-3C1212.29,181.32,1213.42,182.47,1213.43,184.56Z"/><path class="cls-2" d="M1162.61,357.19a7.5,7.5,0,1,1-15,.27,7.5,7.5,0,1,1,15-.27Z"/><path class="cls-2" d="M1146.37,342a2.81,2.81,0,0,1-2.95,2.91,2.93,2.93,0,0,1-3-2.87,3.19,3.19,0,0,1,3.12-3.11A3.1,3.1,0,0,1,1146.37,342Z"/><path class="cls-2" d="M1157.23,341.22a2.15,2.15,0,0,1-2.29,2.26,2.27,2.27,0,0,1,0-4.53A2.14,2.14,0,0,1,1157.23,341.22Z"/><path class="cls-1" d="M483.47,791.9c-9.69,3.63-19.2,7.7-28.76,11.65-1.59.65-1.73,1.37-1.3,2.91a65.71,65.71,0,0,1,2.48,19.72c-.61,17.44-6.69,32.69-18.64,45.47-1.3,1.38-1.55,2.36-.75,4.14,5.15,11.5,10.45,22.92,16.12,34.17a6.2,6.2,0,0,0,.91,1.09,9.72,9.72,0,0,1,.83.87c2.12,3.08,1.7,4.2-2,5.16-1.24.33-2.49.65-3.74.95-3,.7-3.49.43-4.38-2.42a5,5,0,0,0-.36-1.14,2.66,2.66,0,0,0,.22-2.06,250.33,250.33,0,0,0-11.76-33.52c-.64-1.42-1.07-1.54-2.35-.52a67.91,67.91,0,0,1-37.32,15c-13,1.17-25.14-1.44-36.78-7-1.08-.51-1.85-.87-2.93.2-5.85,5.83-11.6,11.77-17,18a5.93,5.93,0,0,0-.6,1.27,9.91,9.91,0,0,1-4.3-4.34c1.55-.59,2.12-2.11,3-3.29,3.84-5.13,7.59-10.33,11.45-15.45,1-1.37,1-2.13-.44-3.23a67.9,67.9,0,0,1-23.24-31.76,69,69,0,0,1-3.46-31.23,72.83,72.83,0,0,1,2.16-10.81c.29-1.14,0-1.56-1-1.88-10.65-3.23-21.35-6.26-32.37-8a19.31,19.31,0,0,0-5.25-.46,11.85,11.85,0,0,1,1.93-6.76c9.88,2,19.81,3.69,29.75,5.32,2.68.44,5.35.9,8,1.37,1.63.28,2.78.07,3.67-1.71a67.57,67.57,0,0,1,21.75-25.23c1.19-.84,1.53-1.56.87-3-3.4-7.26-6.55-14.64-10.59-21.58,1.51-1.81,3.62-2.62,5.73-3.44,1.63,4.3,4.35,8,6.55,12,1.66,3,3.5,5.93,5.19,8.93.7,1.25,1.35,1.54,2.8.87a64.19,64.19,0,0,1,30-6.35c1.8.07,2.48-.58,2.59-2.21.57-8.31,1.25-16.61.27-24.94-.1-.87-.11-1.76-.17-2.64,2.44-.73,4.93-.34,7.4-.44-.18,9.46-.71,18.91-.67,28.38,0,2,.68,2.54,2.54,2.87a67.11,67.11,0,0,1,31.22,14.59,68.4,68.4,0,0,1,19.27,25.46c.42,1,.8,1.19,1.78.9,9.07-2.7,18.1-5.49,26.47-10,.85-.46,1.75-.9,1.77-2.07A12.57,12.57,0,0,1,483.47,791.9Z"/><path class="cls-1" d="M556.21,710.07c-.18,3.6,2.85,4.67,5.1,6.18a125.49,125.49,0,0,0,13.67,8c1.36.68,1.81.59,2.17-1a41,41,0,0,1,10.62-19.88,40.56,40.56,0,0,1,20.34-11.66c1-.23,1.55-.58,1.64-1.67.45-5.18,1.22-10.34.84-15.56a2.93,2.93,0,0,1,3.52.43c-.3,4.34.6,8.63.51,13,0,2,.71,2.51,3,2.57,16.62.44,29.29,7.74,37.41,22.45,1.8,3.27,1.69,3.27,5.13,1.85a141.34,141.34,0,0,0,18-9.06,2.49,2.49,0,0,1,1.44,3.35c-4.35,3.13-9.28,5.28-13.79,8.14l-.21.11c-2.2,1.31-5,2.17-6.41,4.07s.45,4.78.57,7.25a45.31,45.31,0,0,1-1.26,14c-.21.81-.65,1.61.57,2.19a112,112,0,0,0,13.39,5.84c-.23,2.41.08,4.91-1.14,7.16.12-3.7-2.64-4.47-5.36-5.36s-5.3-1.83-7.91-2.84c-1.25-.48-1.95-.4-2.58,1a37,37,0,0,1-10.66,13.71c-1.28,1-1.39,1.86-.37,3.13,2.51,3.11,4.89,6.33,7.41,9.44a7,7,0,0,0,4.2,3,21.36,21.36,0,0,0-4.83,3c-3.42-4.44-6.85-8.86-10.24-13.31-.89-1.17-1.71-1.29-3-.58-12.32,6.59-24.89,6.91-37.61,1.22-1-.45-1.82-.94-2.63.32-2.81,4.37-5.7,8.71-7.74,13.53a3.65,3.65,0,0,0-.42,2.55c-2.59-.61-5.38-.19-7.86-1.44.07,0,.14-.14.19-.13,3.88.63,5.12-2.23,6.51-4.91,1.92-3.7,3.82-7.41,5.83-11.06.76-1.37.41-2-.79-2.91-11-8.16-16.51-19.29-17.38-32.83a1.94,1.94,0,0,1,0-.72c1.38-4-1.25-5.24-4.18-6.54-6.23-2.75-12.23-6-18.63-8.36-2.88-.35-3-.9-1.63-3.43C552.69,712.22,554.87,711.67,556.21,710.07Z"/><path class="cls-1" d="M538.41,886.48c2.7,2,5.45,3.94,8.07,6,1.15.92,1.84.77,2.82-.21A30.45,30.45,0,0,1,560.14,885c1.09-.41,1.45-.91,1-2.16a56.76,56.76,0,0,0-5-11.66,4.18,4.18,0,0,1,3.36-1.07c1.55,3.86,3.14,7.71,4.61,11.61a1.75,1.75,0,0,0,2.31,1.35c10.58-1.93,20,.49,28.09,7.69.51.45,1.07,1.26,1.84.59,3.59-3.15,7.65-5.84,10.07-10.15,1.2.15,2.14.61,2.32,2-3.08,3.15-6.1,6.36-9.29,9.4-1.28,1.21-1.22,2-.26,3.37,6.51,9.31,7.85,19.4,4.2,30.14a1.87,1.87,0,0,0,.55,2.29c4.36,4.25,8.84,8.36,13.55,12.23.8.31,1.92.51,1.58,1.67a4.34,4.34,0,0,1-3.3,2.81c-1.14.31-1.39-.74-1.65-1.58a132.11,132.11,0,0,0-10.88-12.51c-1-1-1.43-1.07-2.24.26-5.26,8.58-12.76,14-22.76,15.8a19.67,19.67,0,0,1-6.67.34,2.18,2.18,0,0,0-2.73,1.66c-1.29,3.45-2.66,6.88-4,10.31-1.32.42-2.57.55-3.36-.93.93,0,1.34-.45,1.56-1.41.64-2.89,1.42-5.74,2.17-8.6.29-1.12,0-1.73-1.21-2.12-13-4-20.79-12.88-23.37-26.26-.26-1.35-.64-1.94-2.27-1.77a139.48,139.48,0,0,0-14,2.11c-1.17.25-2.34.59-2.86,1.87a3.49,3.49,0,0,1-.11-4.3c5.69-1.28,11.38-2.6,17.08-3.84,1.06-.24,1.72-.55,1.81-1.8A31.06,31.06,0,0,1,545,898a1.38,1.38,0,0,0-.21-2.06,55,55,0,0,0-8.37-7.17C536.59,887.61,537,886.61,538.41,886.48Z"/><path class="cls-2" d="M283.86,788.62a26.61,26.61,0,0,1-1.93,6.77c-3.64,6.54-9.21,10.09-16.68,9.91-7.25-.17-12.66-3.78-15.92-10.32a18.13,18.13,0,1,1,34.5-8.28Z"/><path class="cls-2" d="M483.47,791.9a27.27,27.27,0,0,1-3.38-6.18c-3.3-11.78,3.65-22.43,15.54-23.78a18.12,18.12,0,0,1,19.57,15c1.5,9.88-5,19.19-14.53,20.84C493.83,799,488.25,796.63,483.47,791.9Z"/><path class="cls-2" d="M331.09,901.45a21.57,21.57,0,0,1,4.3,4.34,18.19,18.19,0,1,1-5.11-4.87Z"/><path class="cls-2" d="M343.07,740.39c-1.63,1.61-3.73,2.44-5.73,3.44-9.94,2.39-16.52-3.77-18.27-10a14.51,14.51,0,1,1,25,5.44C343.72,739.68,343.39,740,343.07,740.39Z"/><path class="cls-2" d="M614.11,674.94l-3.52-.43c-5.43-1.78-8.48-6.15-8.09-11.6a11,11,0,0,1,21.14-3.16C626.5,666.69,622,673.8,614.11,674.94Z"/><path class="cls-2" d="M679.61,709.07a11.44,11.44,0,0,0-1.44-3.35c0-1.91-.32-3.83.2-5.74a11,11,0,0,1,21.27,0,11,11,0,0,1-5,12.23,10.78,10.78,0,0,1-13.28-1.56C680.78,710.15,680.19,709.61,679.61,709.07Z"/><path class="cls-2" d="M581.69,785.17c2.66.24,5.5-.45,7.86,1.44,4.82,3.3,6.49,8.55,4.34,13.64a11,11,0,0,1-21.06-4C572.63,790.92,576.15,786.54,581.69,785.17Z"/><path class="cls-2" d="M443.92,914.47c.9,0,1,.69,1.1,1.28.25,2.34,1.54,2.29,3.34,1.69a36.5,36.5,0,0,1,5.07-1.27c1.94-.36,2.07-1.22,1.07-2.72a4.19,4.19,0,0,1-1-2.4c6,1.09,9.71,5.78,9.24,11.8a10.85,10.85,0,0,1-21.58.29A10.54,10.54,0,0,1,443.92,914.47Z"/><path class="cls-2" d="M671.33,757.85c.16-2.42-.36-5,1.14-7.16,2.15-2.65,4.85-4.22,8.35-3.76a8.77,8.77,0,0,1,7.82,8.65,9,9,0,0,1-7.43,8.8C677,765.15,672.92,762.48,671.33,757.85Z"/><path class="cls-2" d="M608.75,883.12l-2.32-2c-2.7-3.76-2.87-7.77-.47-10.9a8.56,8.56,0,1,1,4.88,13.42C610.14,883.51,609.45,883.31,608.75,883.12Z"/><path class="cls-2" d="M521.44,917.9c0,1.44.07,2.87.11,4.3-1.31,5-5.28,7.68-10,6.78a8.54,8.54,0,0,1,2.29-16.91C517.6,912.38,519.91,914.66,521.44,917.9Z"/><path class="cls-2" d="M561.49,958.38l3.36.93c2.89,2.34,4.81,5.12,4,9.08a8.42,8.42,0,0,1-9.17,7,8.54,8.54,0,0,1,.34-17A13.93,13.93,0,0,1,561.49,958.38Z"/><path class="cls-2" d="M397.71,725.61c-2.39,1.33-4.9.85-7.4.44-.69-.76-1.43-1.48-2.06-2.3a7.24,7.24,0,0,1,11-9.43,7.31,7.31,0,0,1-.07,10C398.71,724.8,398.19,725.19,397.71,725.61Z"/><path class="cls-2" d="M538.41,886.48l-2,2.32a6.88,6.88,0,1,1-4.29-12.28,6.78,6.78,0,0,1,6.78,6.91A21.25,21.25,0,0,1,538.41,886.48Z"/><path class="cls-2" d="M556.21,710.07c-.41.7,1.1,3.17-1.65,1.75-.35-.18-3.64,4.16-3.46,4.57.4.91,1.57.63,2.14,1.32a6.1,6.1,0,0,1-8.32-1.3,6.44,6.44,0,0,1,.34-8.71,6.59,6.59,0,0,1,11,2.37Z"/><path class="cls-2" d="M614.13,943.45c1.59,2.48,2.69.35,3.87-.45,1.7-1.15.16-1.73-.5-2.45,3.07-.35,5,.53,6,2.77a5.2,5.2,0,0,1-1.4,6.08,5.06,5.06,0,0,1-6.22.19C613.92,948.23,613.32,946.07,614.13,943.45Z"/><path class="cls-2" d="M651.23,782.88a4.53,4.53,0,0,1,4.83-3c2.88.83,4.22,2.7,3.73,5.2a4.47,4.47,0,0,1-4.79,3.49C652.39,788.25,651,786.21,651.23,782.88Z"/><path class="cls-2" d="M559.51,870.06a5.41,5.41,0,0,1-3.36,1.07,3.46,3.46,0,0,1-2.28-5.22,3.23,3.23,0,0,1,3.94-1.41,3.16,3.16,0,0,1,2.27,3.51A12.78,12.78,0,0,1,559.51,870.06Z"/><path class="cls-2" d="M361,865.33c-9.07.48-18.28-7.15-18.25-18.07a17.85,17.85,0,0,1,18.09-18.06c10.11,0,18.09,7.31,18.26,18.14A17.83,17.83,0,0,1,361,865.33Z"/><path class="cls-2" d="M342.15,802.71a7,7,0,0,1,7.16-7.34,7.22,7.22,0,0,1,7.3,7.32,7.59,7.59,0,0,1-7.07,7.15A7,7,0,0,1,342.15,802.71Z"/><path class="cls-2" d="M375.5,806.41c3.33,0,5.28,1.86,5.3,5.13a5.24,5.24,0,0,1-5.09,5.53,5.47,5.47,0,0,1-5.57-5.41A5.21,5.21,0,0,1,375.5,806.41Z"/><path class="cls-2" d="M621.33,700.84c5.71-.54,11,5.14,11,10.73a11,11,0,0,1-22.09.18C610.32,705.84,615.43,700.33,621.33,700.84Z"/><path class="cls-2" d="M648.32,728a4,4,0,0,1-4.33,4.33,4.47,4.47,0,0,1-4.36-4.2,4.84,4.84,0,0,1,4.49-4.49A4.45,4.45,0,0,1,648.32,728Z"/><path class="cls-2" d="M631.46,734.45c-.09,1.45-1,2.6-3.07,2.66a2.91,2.91,0,0,1-3.28-3,3.13,3.13,0,0,1,3.21-3.38C630.16,730.79,631.45,732.08,631.46,734.45Z"/><path class="cls-2" d="M574.08,929.35a8.47,8.47,0,1,1-8.63-8.45A8.4,8.4,0,0,1,574.08,929.35Z"/><path class="cls-2" d="M555.74,912.16a3.16,3.16,0,0,1-3.33,3.28A3.29,3.29,0,0,1,549,912.2a3.6,3.6,0,0,1,3.52-3.51A3.49,3.49,0,0,1,555.74,912.16Z"/><path class="cls-2" d="M568,911.32a2.43,2.43,0,0,1-2.59,2.55,2.56,2.56,0,0,1,0-5.11A2.41,2.41,0,0,1,568,911.32Z"/><path class="cls-1" d="M1564.36,791.45c-8.58,3.21-17,6.81-25.48,10.32-1.4.58-1.52,1.21-1.15,2.57a57.64,57.64,0,0,1,2.2,17.47c-.53,15.45-5.92,29-16.51,40.27a2.81,2.81,0,0,0-.66,3.67c4.56,10.18,9.26,20.3,14.28,30.26a5.22,5.22,0,0,0,.8,1,9,9,0,0,1,.74.77c1.88,2.73,1.5,3.72-1.74,4.57-1.1.29-2.2.58-3.31.84-2.66.62-3.09.38-3.88-2.14a4.4,4.4,0,0,0-.32-1,2.36,2.36,0,0,0,.2-1.83,220.75,220.75,0,0,0-10.42-29.68c-.57-1.27-.95-1.37-2.08-.46a60.16,60.16,0,0,1-33,13.24,61.28,61.28,0,0,1-32.58-6.21c-1-.46-1.64-.77-2.59.18-5.19,5.16-10.28,10.41-15.07,16a4.45,4.45,0,0,0-.53,1.12,8.7,8.7,0,0,1-3.81-3.85c1.37-.52,1.88-1.86,2.66-2.91,3.41-4.54,6.72-9.15,10.15-13.68.92-1.22.9-1.89-.39-2.87a60.12,60.12,0,0,1-20.59-28.12,61.17,61.17,0,0,1-3.06-27.67,64.58,64.58,0,0,1,1.91-9.57c.26-1,0-1.38-.91-1.66-9.43-2.86-18.9-5.55-28.67-7.06a17.67,17.67,0,0,0-4.64-.4,10.45,10.45,0,0,1,1.71-6c8.74,1.78,17.54,3.27,26.34,4.72q3.57.59,7.12,1.21c1.44.25,2.46.06,3.25-1.51a59.74,59.74,0,0,1,19.27-22.35c1-.75,1.35-1.39.77-2.63-3-6.42-5.81-13-9.39-19.11,1.34-1.6,3.21-2.32,5.08-3,1.45,3.8,3.85,7.09,5.8,10.62,1.47,2.67,3.1,5.26,4.6,7.91.62,1.11,1.19,1.37,2.48.77a56.8,56.8,0,0,1,26.58-5.62c1.59.07,2.19-.52,2.29-2,.5-7.35,1.11-14.71.24-22.09-.09-.77-.1-1.56-.15-2.34,2.16-.64,4.37-.3,6.56-.39-.17,8.38-.63,16.75-.59,25.14,0,1.74.6,2.25,2.24,2.55a59.49,59.49,0,0,1,27.65,12.91,60.63,60.63,0,0,1,17.07,22.56c.37.83.71,1.05,1.57.79,8-2.39,16-4.86,23.45-8.88.76-.4,1.55-.79,1.57-1.82A11.1,11.1,0,0,1,1564.36,791.45Z"/><path class="cls-1" d="M1628.78,719c-.16,3.19,2.53,4.14,4.53,5.48a111.74,111.74,0,0,0,12.1,7.11c1.21.61,1.61.53,1.92-.89a36.46,36.46,0,0,1,9.4-17.61,36,36,0,0,1,18-10.32c.89-.21,1.38-.52,1.46-1.48.39-4.59,1.08-9.16.74-13.78a2.59,2.59,0,0,1,3.12.38c-.26,3.84.53,7.64.45,11.48,0,1.75.63,2.23,2.64,2.28,14.72.39,25.94,6.86,33.13,19.89,1.6,2.89,1.5,2.89,4.55,1.64a126.17,126.17,0,0,0,16-8,2.19,2.19,0,0,1,1.27,3c-3.85,2.78-8.21,4.68-12.21,7.22a1.63,1.63,0,0,0-.19.09c-1.94,1.16-4.44,1.92-5.68,3.6s.4,4.24.51,6.43a40.18,40.18,0,0,1-1.11,12.41c-.2.73-.58,1.43.5,1.94a98.85,98.85,0,0,0,11.85,5.18c-.2,2.13.08,4.34-1,6.34.11-3.28-2.34-4-4.75-4.74s-4.69-1.63-7-2.52c-1.11-.43-1.73-.36-2.29.87a32.74,32.74,0,0,1-9.44,12.15c-1.14.91-1.23,1.64-.33,2.77,2.23,2.75,4.33,5.61,6.56,8.36a6.27,6.27,0,0,0,3.72,2.61,18.89,18.89,0,0,0-4.27,2.67c-3-3.93-6.07-7.85-9.08-11.79-.79-1-1.51-1.15-2.69-.51-10.91,5.83-22,6.11-33.31,1.08-.89-.4-1.61-.84-2.33.28a79.75,79.75,0,0,0-6.85,12,3.23,3.23,0,0,0-.37,2.26c-2.3-.54-4.77-.17-7-1.27.05,0,.12-.13.16-.12,3.44.56,4.53-2,5.77-4.35,1.7-3.27,3.38-6.56,5.16-9.79.67-1.22.36-1.79-.7-2.58-9.75-7.23-14.62-17.08-15.39-29.08a1.53,1.53,0,0,1,0-.64c1.22-3.51-1.11-4.64-3.71-5.79-5.51-2.43-10.82-5.32-16.49-7.41-2.55-.3-2.63-.79-1.45-3C1625.67,720.88,1627.6,720.39,1628.78,719Z"/><path class="cls-1" d="M1613,875.22c2.39,1.77,4.83,3.48,7.15,5.34,1,.81,1.63.68,2.5-.19a27,27,0,0,1,9.6-6.51c1-.36,1.28-.8.91-1.91a51,51,0,0,0-4.44-10.33,3.71,3.71,0,0,1,3-1c1.37,3.42,2.78,6.83,4.09,10.28.4,1.07.9,1.41,2,1.2,9.37-1.71,17.71.43,24.88,6.82.44.39,1,1.11,1.63.52,3.18-2.79,6.77-5.18,8.91-9,1.07.14,1.9.55,2.06,1.75-2.73,2.79-5.41,5.63-8.23,8.32-1.13,1.08-1.08,1.78-.23,3,5.77,8.25,7,17.19,3.72,26.69a1.66,1.66,0,0,0,.49,2c3.86,3.77,7.83,7.41,12,10.83.71.28,1.7.45,1.4,1.48a3.85,3.85,0,0,1-2.92,2.49c-1,.28-1.23-.65-1.46-1.39a116.93,116.93,0,0,0-9.64-11.09c-.86-.88-1.27-.94-2,.23-4.66,7.61-11.3,12.45-20.16,14a17.45,17.45,0,0,1-5.9.3,1.94,1.94,0,0,0-2.42,1.47c-1.14,3.06-2.36,6.09-3.54,9.13-1.17.37-2.28.49-3-.83.83,0,1.19-.39,1.38-1.25.58-2.55,1.26-5.08,1.92-7.61.26-1,0-1.54-1.06-1.87-11.56-3.6-18.42-11.41-20.7-23.26-.24-1.2-.57-1.73-2-1.57a122.86,122.86,0,0,0-12.36,1.87,3,3,0,0,0-2.53,1.65,3.09,3.09,0,0,1-.1-3.8c5-1.14,10.08-2.3,15.13-3.41.94-.2,1.53-.48,1.6-1.59a27.49,27.49,0,0,1,4.12-12.61,1.21,1.21,0,0,0-.19-1.81,48.24,48.24,0,0,0-7.41-6.36C1611.41,876.22,1611.77,875.33,1613,875.22Z"/><path class="cls-2" d="M1387.57,788.54a23.47,23.47,0,0,1-1.71,6c-3.22,5.8-8.16,9-14.77,8.79-6.43-.15-11.21-3.35-14.1-9.14a16.05,16.05,0,1,1,30.55-7.34Z"/><path class="cls-2" d="M1564.36,791.45a24.43,24.43,0,0,1-3-5.47c-2.93-10.44,3.23-19.87,13.76-21.07a16.06,16.06,0,0,1,17.34,13.3c1.32,8.76-4.45,17-12.88,18.46C1573.54,797.72,1568.6,795.64,1564.36,791.45Z"/><path class="cls-2" d="M1429.4,888.47a19.3,19.3,0,0,1,3.81,3.85,16.1,16.1,0,1,1-4.53-4.32C1428.93,888.15,1429.16,888.32,1429.4,888.47Z"/><path class="cls-2" d="M1440,745.83a18.58,18.58,0,0,1-5.08,3c-8.8,2.12-14.62-3.33-16.18-8.82a12.86,12.86,0,1,1,22.11,4.82C1440.58,745.2,1440.29,745.51,1440,745.83Z"/><path class="cls-2" d="M1680.07,687.86l-3.12-.38c-4.81-1.58-7.51-5.45-7.16-10.28a9.75,9.75,0,0,1,18.72-2.79C1691,680.55,1687.08,686.85,1680.07,687.86Z"/><path class="cls-2" d="M1738.08,718.08a10.08,10.08,0,0,0-1.27-3c0-1.7-.29-3.4.17-5.08a9.74,9.74,0,0,1,18.84,0,9.72,9.72,0,0,1-4.43,10.83,9.55,9.55,0,0,1-11.77-1.38Z"/><path class="cls-2" d="M1651.36,785.49c2.35.21,4.87-.41,7,1.27,4.27,2.92,5.75,7.58,3.84,12.09a9.71,9.71,0,0,1-18.66-3.59C1643.33,790.58,1646.45,786.7,1651.36,785.49Z"/><path class="cls-2" d="M1529.33,900c.8,0,.92.6,1,1.13.22,2.07,1.36,2,3,1.49a33.07,33.07,0,0,1,4.49-1.11c1.72-.32,1.84-1.09,1-2.42a3.8,3.8,0,0,1-.86-2.12,9.48,9.48,0,0,1,8.19,10.45,9.61,9.61,0,0,1-19.12.25A9.36,9.36,0,0,1,1529.33,900Z"/><path class="cls-2" d="M1730.75,761.29c.14-2.15-.32-4.38,1-6.34,1.91-2.35,4.3-3.74,7.4-3.33a7.78,7.78,0,0,1,6.93,7.66,8,8,0,0,1-6.59,7.79C1735.73,767.76,1732.15,765.39,1730.75,761.29Z"/><path class="cls-2" d="M1675.32,872.24l-2.06-1.75c-2.39-3.33-2.54-6.87-.41-9.65a7.58,7.58,0,1,1,4.32,11.88C1676.55,872.58,1675.94,872.4,1675.32,872.24Z"/><path class="cls-2" d="M1598,903.05c0,1.27.06,2.53.1,3.8-1.16,4.42-4.68,6.81-8.85,6a7.56,7.56,0,0,1,2-15C1594.59,898.15,1596.63,900.18,1598,903.05Z"/><path class="cls-2" d="M1633.46,938.89l3,.83c2.56,2.07,4.26,4.54,3.57,8a7.47,7.47,0,0,1-8.13,6.19,7.57,7.57,0,0,1,.31-15.1C1632.61,938.83,1633,938.88,1633.46,938.89Z"/><path class="cls-2" d="M1488.41,732.73c-2.13,1.18-4.34.75-6.56.39-.61-.67-1.27-1.31-1.82-2a6.41,6.41,0,0,1,9.71-8.35,6.47,6.47,0,0,1-.06,8.86C1489.29,732,1488.83,732.36,1488.41,732.73Z"/><path class="cls-2" d="M1613,875.22l-1.78,2a6.09,6.09,0,1,1-3.8-10.88,6,6,0,0,1,6,6.12A19.34,19.34,0,0,1,1613,875.22Z"/><path class="cls-2" d="M1628.78,719c-.36.62,1,2.81-1.45,1.55-.32-.16-3.23,3.69-3.07,4.05.36.8,1.39.56,1.9,1.16a5.41,5.41,0,0,1-7.37-1.14,5.82,5.82,0,1,1,10-5.62Z"/><path class="cls-2" d="M1680.09,925.68c1.41,2.19,2.38.3,3.43-.41,1.5-1,.13-1.53-.45-2.17,2.72-.31,4.41.48,5.29,2.46a4.6,4.6,0,0,1-1.24,5.38,4.49,4.49,0,0,1-5.51.17C1679.9,929.91,1679.37,928,1680.09,925.68Z"/><path class="cls-2" d="M1713,783.46a4,4,0,0,1,4.27-2.67c2.55.74,3.74,2.4,3.31,4.61a4,4,0,0,1-4.25,3.09C1714,788.21,1712.77,786.4,1713,783.46Z"/><path class="cls-2" d="M1631.71,860.67a4.81,4.81,0,0,1-3,1,3.07,3.07,0,0,1-2-4.62,2.87,2.87,0,0,1,3.49-1.25,2.77,2.77,0,0,1,2,3.1A10.68,10.68,0,0,1,1631.71,860.67Z"/><path class="cls-2" d="M1455.91,856.48c-8,.43-16.19-6.33-16.16-16a15.83,15.83,0,0,1,16-16c9,0,16,6.47,16.16,16.07A15.77,15.77,0,0,1,1455.91,856.48Z"/><path class="cls-2" d="M1439.19,801a6.21,6.21,0,0,1,6.35-6.51A6.4,6.4,0,0,1,1452,801a6.71,6.71,0,0,1-6.26,6.33A6.22,6.22,0,0,1,1439.19,801Z"/><path class="cls-2" d="M1468.74,804.3c2.94,0,4.67,1.64,4.69,4.54a4.64,4.64,0,0,1-4.51,4.9A4.86,4.86,0,0,1,1464,809,4.62,4.62,0,0,1,1468.74,804.3Z"/><path class="cls-2" d="M1686.47,710.8c5-.48,9.75,4.55,9.75,9.5a9.79,9.79,0,0,1-19.57.16C1676.71,715.22,1681.23,710.34,1686.47,710.8Z"/><path class="cls-2" d="M1710.37,734.82a3.51,3.51,0,0,1-3.83,3.83,4,4,0,0,1-3.87-3.72,4.27,4.27,0,0,1,4-4A3.94,3.94,0,0,1,1710.37,734.82Z"/><path class="cls-2" d="M1695.43,740.56c-.07,1.29-.91,2.3-2.71,2.36a2.59,2.59,0,0,1-2.91-2.62,2.78,2.78,0,0,1,2.84-3C1694.29,737.32,1695.42,738.47,1695.43,740.56Z"/><path class="cls-2" d="M1644.61,913.19a7.5,7.5,0,1,1-15,.27,7.5,7.5,0,1,1,15-.27Z"/><path class="cls-2" d="M1628.37,898a2.81,2.81,0,0,1-2.95,2.91,2.93,2.93,0,0,1-3-2.87,3.19,3.19,0,0,1,3.12-3.11A3.1,3.1,0,0,1,1628.37,898Z"/><path class="cls-2" d="M1639.23,897.22a2.15,2.15,0,0,1-2.29,2.26,2.27,2.27,0,0,1,0-4.53A2.14,2.14,0,0,1,1639.23,897.22Z"/></svg>