<svg id="Capa_1" data-name="Capa 1" xmlns="http://www.w3.org/2000/svg" viewBox="0 0 385.63 320"><defs><style>.cls-1{fill:#ea6a60;}.cls-2{fill:#f4ba51;}</style></defs><title>covid-logo</title><path class="cls-1" d="M339.64,115C325.69,120.18,312,126,298.23,131.73c-2.28.94-2.48,2-1.87,4.19a94.26,94.26,0,0,1,3.57,28.39c-.87,25.11-9.63,47.05-26.83,65.46-1.87,2-2.23,3.39-1.08,6,7.41,16.55,15.05,33,23.21,49.19a8.34,8.34,0,0,0,1.31,1.57,14.06,14.06,0,0,1,1.19,1.25c3,4.44,2.44,6.05-2.83,7.43-1.78.47-3.57.94-5.37,1.36-4.33,1-5,.63-6.32-3.48a7.42,7.42,0,0,0-.51-1.64,3.78,3.78,0,0,0,.32-3c-4.71-16.42-9.93-32.64-16.93-48.25-.92-2.06-1.54-2.23-3.38-.75A97.86,97.86,0,0,1,209,261c-18.68,1.68-36.19-2.08-52.94-10.1-1.56-.75-2.67-1.26-4.22.29-8.43,8.39-16.7,16.93-24.49,25.92a8.13,8.13,0,0,0-.87,1.83,14.32,14.32,0,0,1-6.19-6.25c2.23-.85,3.06-3,4.33-4.73,5.54-7.39,10.93-14.88,16.49-22.25,1.49-2,1.47-3.07-.63-4.66A97.75,97.75,0,0,1,107,195.32c-5.29-14.57-6.61-29.59-5-45a104.91,104.91,0,0,1,3.11-15.57c.42-1.63.06-2.23-1.48-2.69-15.33-4.66-30.73-9-46.6-11.47-2.5-.39-5-1-7.55-.65a17.09,17.09,0,0,1,2.79-9.74c14.21,2.89,28.5,5.31,42.81,7.66q5.79,1,11.57,2c2.35.41,4,.1,5.28-2.46a97.29,97.29,0,0,1,31.32-36.33c1.71-1.2,2.19-2.24,1.25-4.26-4.9-10.44-9.43-21.07-15.25-31.06,2.18-2.61,5.21-3.78,8.25-4.95,2.35,6.19,6.26,11.52,9.42,17.27,2.4,4.34,5,8.54,7.48,12.86,1,1.8,1.94,2.22,4,1.25,13.68-6.34,28-9.79,43.2-9.14,2.59.11,3.57-.84,3.73-3.18.82-12,1.8-23.92.4-35.91-.15-1.25-.17-2.53-.25-3.8,3.5-1.05,7.1-.49,10.65-.63-.26,13.62-1,27.22-1,40.86,0,2.82,1,3.66,3.65,4.13a96.64,96.64,0,0,1,44.95,21,98.29,98.29,0,0,1,27.73,36.66c.6,1.36,1.16,1.71,2.56,1.29,13.06-3.88,26.06-7.9,38.12-14.43,1.22-.67,2.51-1.29,2.54-3A18,18,0,0,1,339.64,115Z"/><path class="cls-2" d="M52.29,110.24A38.49,38.49,0,0,1,49.5,120c-5.23,9.42-13.26,14.53-24,14.28C15.05,134,7.27,128.82,2.58,119.4A26.08,26.08,0,0,1,35.36,83.79a26,26,0,0,1,16.87,23.68Z"/><path class="cls-2" d="M339.64,115a39.21,39.21,0,0,1-4.87-8.89C330,89.1,340,73.78,357.15,71.83c13.3-1.52,26.16,8.35,28.17,21.62,2.16,14.23-7.23,27.62-20.93,30C354.55,125.16,346.53,121.77,339.64,115Z"/><path class="cls-2" d="M120.27,272.67a31.07,31.07,0,0,1,6.19,6.25,26.15,26.15,0,1,1-7.35-7Z"/><path class="cls-2" d="M137.52,40.81c-2.35,2.32-5.37,3.52-8.25,4.95C115,49.2,105.49,40.34,103,31.42a20.89,20.89,0,1,1,35.94,7.84C138.45,39.78,138,40.29,137.52,40.81Z"/><path class="cls-2" d="M282.7,291.41c1.3-.05,1.49,1,1.59,1.84.36,3.37,2.22,3.31,4.8,2.43a53.72,53.72,0,0,1,7.3-1.82c2.8-.52,3-1.76,1.54-3.92a6.07,6.07,0,0,1-1.39-3.45c8.69,1.57,14,8.32,13.29,17a15.62,15.62,0,0,1-31.06.42A15.21,15.21,0,0,1,282.7,291.41Z"/><path class="cls-2" d="M216.18,19.53c-3.45,1.92-7.05,1.22-10.65.63-1-1.09-2.06-2.13-3-3.3A10.43,10.43,0,0,1,218.35,3.28a10.5,10.5,0,0,1-.1,14.41C217.61,18.36,216.87,18.92,216.18,19.53Z"/><path class="cls-2" d="M163.37,220.67c-13.06.69-26.32-10.3-26.27-26a25.71,25.71,0,0,1,26.05-26c14.54,0,26,10.52,26.27,26.12A25.65,25.65,0,0,1,163.37,220.67Z"/><path class="cls-2" d="M136.19,130.53A10.09,10.09,0,0,1,146.5,120,10.42,10.42,0,0,1,157,130.49a10.91,10.91,0,0,1-10.18,10.29A10.11,10.11,0,0,1,136.19,130.53Z"/><path class="cls-2" d="M184.21,135.85c4.79,0,7.6,2.67,7.63,7.39,0,4.46-3.14,7.9-7.33,8a7.89,7.89,0,0,1-8-7.79A7.51,7.51,0,0,1,184.21,135.85Z"/></svg>